<svg xmlns="http://www.w3.org/2000/svg" version="1.1" xmlns:xlink="http://www.w3.org/1999/xlink" xmlns:svgjs="http://svgjs.dev/svgjs" width="137.19" height="137.19"><svg id="SvgjsSvg1009" xmlns="http://www.w3.org/2000/svg" viewBox="0 0 137.19 137.19"><rect width="137.19" height="137.19" rx="19.12" ry="19.12" fill="#27489d"></rect><path d="M99.1,48.97c-1.53-3.68-4.23-6.54-8.11-8.57-3.88-2.04-8.81-3.06-14.77-3.06h-25.72c-.46,0-.86.33-.96.78l-2.91,13.8c2.05,1.27,4.24,2.18,6.63,2.78,3.87.96,8.27,1.11,13.44.66l1.19-5.68c.13-.6,1.17-1,1.76-.67l16.29,11.49c.58.32.54.9-.04,1.23l-21.61,12.9c-.75.41-1.65.14-1.52-.46l1.23-5.86c-8.58.1-15.37-.88-19.32-4.38-2.89-2.56-4.23-6.49-3.66-12.31-.28.15-.5.37-.54.63-1.02,6.61.22,10.97,3.18,13.8l-6.91,32.7c-.12.58.3,1.11.89,1.11h18.78c.46,0,.86-.33.96-.78l2.52-11.91c.1-.45.5-.78.96-.78h5.02c5.97,0,11.33-1.04,16.08-3.13,4.75-2.08,8.67-4.97,11.75-8.65,3.08-3.68,5.13-7.93,6.15-12.77l.02-.09c1.02-4.83.77-9.09-.76-12.77Z" fill="#fff" fill-rule="evenodd"></path></svg><style>@media (prefers-color-scheme: light) { :root { filter: none; } }
@media (prefers-color-scheme: dark) { :root { filter: none; } }
</style></svg>